<svg width="30" height="29" viewBox="0 0 30 29" fill="none" xmlns="http://www.w3.org/2000/svg">
<path d="M13.75 4.00004H5C4.33696 4.00004 3.70107 4.26343 3.23223 4.73227C2.76339 5.20111 2.5 5.837 2.5 6.50004V24C2.5 24.6631 2.76339 25.299 3.23223 25.7678C3.70107 26.2366 4.33696 26.5 5 26.5H22.5C23.163 26.5 23.7989 26.2366 24.2678 25.7678C24.7366 25.299 25 24.6631 25 24V15.25M23.125 2.12504C23.6223 1.62776 24.2967 1.34839 25 1.34839C25.7033 1.34839 26.3777 1.62776 26.875 2.12504C27.3723 2.62232 27.6517 3.29678 27.6517 4.00004C27.6517 4.7033 27.3723 5.37776 26.875 5.87504L15 17.75L10 19L11.25 14L23.125 2.12504Z" stroke="#00B206" stroke-width="2" stroke-linecap="round" stroke-linejoin="round"/>
</svg>
